<?xml version="1.0" encoding="utf-8"?>
<!-- Generator: Adobe Adobe Illustrator 24.2.0, SVG Export Plug-In . SVG Version: 6.00 Build 0)  -->
<svg version="1.1" id="レイヤー_1" xmlns="http://www.w3.org/2000/svg" xmlns:xlink="http://www.w3.org/1999/xlink" x="0px"
	 y="0px" width="1133.86px" height="1133.86px" viewBox="0 0 1133.86 1133.86" style="enable-background:new 0 0 1133.86 1133.86;"
	 xml:space="preserve">
<style type="text/css">
	.st0{opacity:0.9412;}
	.st1{fill:#63C167;}
	.st2{fill:none;stroke:#865545;stroke-width:18;stroke-linejoin:round;stroke-miterlimit:10;}
	.st3{fill:none;stroke:#F0F8F0;stroke-width:18;stroke-linejoin:round;stroke-miterlimit:10;}
	.st4{fill:#FBFCF3;}
	.st5{fill:#865545;}
	.st6{display:none;fill:none;stroke:#865545;stroke-width:18;stroke-linecap:round;stroke-miterlimit:10;}
	.st7{fill:#865545;stroke:#865545;stroke-width:6;stroke-miterlimit:10;}
	.st8{fill:#FF5C3C;stroke:#865545;stroke-width:10;stroke-miterlimit:10;}
	.st9{fill:none;stroke:#865545;stroke-width:12;stroke-linecap:round;stroke-miterlimit:10;}
	.st10{fill:#ECF7DA;stroke:#5CBF8C;stroke-width:12;stroke-linecap:round;stroke-linejoin:round;stroke-miterlimit:10;}
	.st11{fill:none;stroke:#ECF7DA;stroke-width:18;stroke-linejoin:round;stroke-miterlimit:10;}
</style>
<g>
	<g>
		<g class="st0">
			<path class="st1" d="M924.99,389.1l-142.47,708.66H359.53L216.33,389.1c146.2,52.48,228.97-17.56,350.6,16.28
				C709.04,456.4,762.57,330.8,924.99,389.1z"/>
		</g>
	</g>
</g>
<g>
	<g>
		<g class="st0">
			<path class="st2" d="M924.99,389.1l-142.47,708.66H359.53L216.33,389.1c0-37.44,158.64-43.86,354.33-43.86
				S926.19,354.17,924.99,389.1z"/>
		</g>
	</g>
</g>
<g>
	<g>
		<g class="st0">
			<path class="st3" d="M906.69,395.16L767.27,1084.7H374.74L234.08,394.97c0-34.74,154.98-30.57,336.58-30.57
				S907.8,362.74,906.69,395.16z"/>
		</g>
	</g>
</g>
<g>
	<path class="st4" d="M589.81,466.5c-73.06,0-148.84-1.8-202.06-23.37c-56.22-22.78-82.4-65.07-82.4-133.1
		c0-36.82,7.23-71.48,21.48-103.01c13.61-30.13,33.3-56.75,58.52-79.12c50.29-44.61,119.35-69.18,194.47-69.18
		c75.12,0,144.18,24.57,194.47,69.18c25.22,22.37,44.91,48.99,58.52,79.12c14.25,31.54,21.48,66.2,21.48,103.01
		c0,36.44-6.37,65.01-19.48,87.35c-11.83,20.16-29.23,35.16-53.22,45.88C733.52,464.72,663.44,466.5,589.81,466.5z"/>
	<path class="st5" d="M579.81,67.72c72.91,0,139.86,23.76,188.49,66.91c24.26,21.53,43.2,47.13,56.29,76.09
		c13.72,30.37,20.68,63.78,20.68,99.31c0,34.79-5.97,61.87-18.24,82.79c-10.84,18.48-26.91,32.29-49.13,42.21
		c-46.44,20.74-115.47,22.46-188.1,22.46c-72.17,0-146.96-1.75-198.68-22.71c-25.21-10.22-43.53-24.24-55.98-42.86
		c-14-20.93-20.8-47.72-20.8-81.89c0-35.53,6.96-68.94,20.68-99.31c13.09-28.97,32.03-54.57,56.29-76.09
		C439.95,91.49,506.89,67.72,579.81,67.72 M579.81,49.72c-156.55,0-283.46,103.76-283.46,260.32S433.25,475.5,589.81,475.5
		s273.46-8.91,273.46-165.46S736.36,49.72,579.81,49.72L579.81,49.72z"/>
</g>
<path class="st6" d="M628.93,255.16c0,20.43-27.76,37-62,37s-62-16.57-62-37"/>
<ellipse class="st7" cx="467.72" cy="207.95" rx="14.17" ry="28.35"/>
<ellipse class="st7" cx="666.14" cy="207.95" rx="14.17" ry="28.35"/>
<circle class="st8" cx="846.56" cy="365.22" r="70.87"/>
<path class="st9" d="M856.69,323.21c25.56-113.47,100-154.51,100-154.51"/>
<path class="st10" d="M408.82,1000.61l25.84-75.05c3.06-8.88,12.74-13.6,21.62-10.54l75.05,25.84c8.88,3.06,13.6,12.74,10.54,21.62
	l-25.84,75.05c-3.06,8.88-12.74,13.6-21.62,10.54l-75.05-25.84C410.49,1019.18,405.77,1009.5,408.82,1000.61z"/>
<path class="st10" d="M598.49,926.97l77.91-15.14c9.22-1.79,18.15,4.23,19.94,13.45l15.14,77.91c1.79,9.22-4.23,18.15-13.45,19.94
	l-77.91,15.14c-9.22,1.79-18.15-4.23-19.94-13.45l-15.14-77.91C583.25,937.69,589.27,928.76,598.49,926.97z"/>
<path class="st10" d="M801.25,720.34l-23.2,75.9c-2.75,8.98-12.25,14.04-21.24,11.29l-75.9-23.2c-8.98-2.75-14.04-12.25-11.29-21.24
	l23.2-75.9c2.75-8.98,12.25-14.04,21.24-11.29l75.9,23.2C798.94,701.85,803.99,711.36,801.25,720.34z"/>
<path class="st10" d="M656.33,839.71l-61.68,49.95c-7.3,5.91-18.01,4.79-23.92-2.51l-49.95-61.68c-5.91-7.3-4.79-18.01,2.51-23.92
	l61.68-49.95c7.3-5.91,18.01-4.79,23.92,2.51l49.95,61.68C664.75,823.09,663.63,833.8,656.33,839.71z"/>
<path class="st10" d="M463.31,812.08l-75.9,23.21c-8.98,2.75-18.49-2.31-21.24-11.29l-23.21-75.9c-2.75-8.98,2.31-18.49,11.29-21.24
	l75.9-23.21c8.98-2.75,18.49,2.31,21.24,11.29l23.21,75.9C477.35,799.83,472.29,809.34,463.31,812.08z"/>
<circle class="st11" cx="324.24" cy="599.39" r="7.09"/>
<circle class="st11" cx="523.35" cy="702.91" r="2.83"/>
<circle class="st11" cx="384.24" cy="924.69" r="2.83"/>
<circle class="st11" cx="708.86" cy="609.31" r="2.83"/>
<circle class="st11" cx="808.38" cy="643.62" r="4.25"/>
<circle class="st11" cx="426.69" cy="540.39" r="7.09"/>
<circle class="st11" cx="550.89" cy="592.3" r="7.09"/>
<circle class="st11" cx="762.33" cy="533.31" r="2.83"/>
<circle class="st11" cx="472.51" cy="879.75" r="2.83"/>
<circle class="st11" cx="714.53" cy="859.9" r="2.83"/>
<circle class="st11" cx="742.52" cy="927.52" r="7.09"/>
<circle class="st11" cx="426.69" cy="654.96" r="7.09"/>
<circle class="st11" cx="621.3" cy="679.23" r="4.25"/>
</svg>
