<?xml version="1.0" encoding="utf-8"?>
<!-- Generator: Adobe Adobe Illustrator 24.2.0, SVG Export Plug-In . SVG Version: 6.00 Build 0)  -->
<svg version="1.1" id="レイヤー_1" xmlns="http://www.w3.org/2000/svg" xmlns:xlink="http://www.w3.org/1999/xlink" x="0px"
	 y="0px" width="1133.86px" height="1133.86px" viewBox="0 0 1133.86 1133.86" style="enable-background:new 0 0 1133.86 1133.86;"
	 xml:space="preserve">
<style type="text/css">
	.st0{display:none;fill:none;stroke:#865545;stroke-width:18;stroke-linecap:round;stroke-miterlimit:10;}
	.st1{opacity:0.9412;}
	.st2{fill:#63C167;}
	.st3{fill:none;stroke:#865545;stroke-width:18;stroke-linejoin:round;stroke-miterlimit:10;}
	.st4{fill:none;stroke:#F0F8F0;stroke-width:18;stroke-linejoin:round;stroke-miterlimit:10;}
	.st5{fill:#FBFCF3;}
	.st6{fill:#865545;}
	.st7{fill:#865545;stroke:#865545;stroke-width:6;stroke-miterlimit:10;}
	.st8{fill:#FF5C3C;stroke:#865545;stroke-width:10;stroke-miterlimit:10;}
	.st9{fill:none;stroke:#865545;stroke-width:12;stroke-linecap:round;stroke-miterlimit:10;}
	.st10{fill:#ECF7DA;stroke:#5CBF8C;stroke-width:12;stroke-linecap:round;stroke-linejoin:round;stroke-miterlimit:10;}
	.st11{fill:none;stroke:#ECF7DA;stroke-width:18;stroke-linejoin:round;stroke-miterlimit:10;}
</style>
<path class="st0" d="M628.93,255.16c0,20.43-27.76,37-62,37s-62-16.57-62-37"/>
<g>
	<g>
		<g class="st1">
			<path class="st2" d="M831.63,422.54L720.21,976.72H389.43L277.45,422.54c114.33,41.04,179.06-13.73,274.17,12.74
				C662.75,475.16,704.61,376.95,831.63,422.54z"/>
		</g>
	</g>
</g>
<g>
	<g>
		<g class="st1">
			<path class="st3" d="M831.63,422.54L720.21,976.72H389.43L277.45,422.54c0-29.28,124.06-34.3,277.09-34.3
				S832.56,395.22,831.63,422.54z"/>
		</g>
	</g>
</g>
<g>
	<g>
		<g class="st1">
			<path class="st4" d="M817.31,427.28L708.28,966.5H401.32L291.33,427.13c0-27.17,121.2-23.91,263.21-23.91
				S818.18,401.93,817.31,427.28z"/>
		</g>
	</g>
</g>
<g>
	<path class="st5" d="M569.51,481.1c-56.94,0-115.99-1.4-157.28-18.13C369.1,445.5,349.01,413,349.01,360.71
		c0-28.51,5.59-55.34,16.62-79.75c10.53-23.31,25.77-43.9,45.28-61.21c38.97-34.57,92.51-53.61,150.77-53.61
		c58.26,0,111.81,19.04,150.77,53.61c19.51,17.31,34.75,37.91,45.28,61.21c11.03,24.41,16.62,51.24,16.62,79.75
		c0,28.14-4.89,50.15-14.96,67.31c-9.03,15.4-22.36,26.87-40.73,35.08C681.45,479.73,626.87,481.1,569.51,481.1z"/>
	<path class="st6" d="M561.69,175.14c56.06,0,107.48,18.23,144.8,51.34c18.56,16.46,33.04,36.04,43.05,58.19
		c10.5,23.24,15.82,48.82,15.82,76.04c0,26.49-4.49,47.02-13.72,62.76c-8.05,13.72-20.04,24-36.63,31.41
		c-35.61,15.91-89.14,17.22-145.5,17.22c-56.05,0-114.11-1.35-153.9-17.47c-18.97-7.68-32.7-18.17-41.99-32.06
		c-10.5-15.7-15.6-35.94-15.6-61.86c0-27.22,5.32-52.81,15.82-76.04c10.01-22.14,24.49-41.72,43.05-58.19
		C454.2,193.37,505.63,175.14,561.69,175.14 M561.69,157.14c-122.43,0-221.67,81.14-221.67,203.57s107.07,129.4,229.49,129.4
		c122.43,0,213.85-6.97,213.85-129.4S684.11,157.14,561.69,157.14L561.69,157.14z"/>
</g>
<ellipse class="st7" cx="474.03" cy="280.88" rx="11.08" ry="22.17"/>
<ellipse class="st7" cx="629.2" cy="280.88" rx="11.08" ry="22.17"/>
<circle class="st8" cx="770.29" cy="403.87" r="55.42"/>
<path class="st9" d="M778.21,371.01c19.99-88.73,78.2-120.83,78.2-120.83"/>
<path class="st10" d="M429.18,897.25l17.79-51.68c3.06-8.88,12.74-13.6,21.62-10.54l51.68,17.79c8.88,3.06,13.6,12.74,10.54,21.62
	l-17.79,51.68c-3.06,8.88-12.74,13.6-21.62,10.54l-51.68-17.79C430.85,915.81,426.12,906.13,429.18,897.25z"/>
<path class="st10" d="M579.94,842.45l53.65-10.43c9.22-1.79,18.15,4.23,19.94,13.45l10.43,53.65c1.79,9.22-4.23,18.15-13.45,19.94
	l-53.65,10.43c-9.22,1.79-18.15-4.23-19.94-13.45l-10.43-53.65C564.69,853.17,570.71,844.24,579.94,842.45z"/>
<path class="st10" d="M733.77,685.12l-15.98,52.27c-2.75,8.98-12.25,14.04-21.24,11.29l-52.27-15.98
	c-8.98-2.75-14.04-12.25-11.29-21.24l15.98-52.27c2.75-8.98,12.25-14.04,21.24-11.29l52.27,15.98
	C731.46,666.63,736.52,676.14,733.77,685.12z"/>
<path class="st10" d="M618.64,777.25l-42.47,34.4c-7.3,5.91-18.01,4.79-23.92-2.51l-34.4-42.47c-5.91-7.3-4.79-18.01,2.51-23.92
	l42.47-34.4c7.3-5.91,18.01-4.79,23.92,2.51l34.4,42.47C627.07,760.63,625.94,771.34,618.64,777.25z"/>
<path class="st10" d="M467.04,754.4l-52.27,15.98c-8.98,2.75-18.49-2.31-21.24-11.29l-15.98-52.27
	c-2.75-8.98,2.31-18.49,11.29-21.24l52.27-15.98c8.98-2.75,18.49,2.31,21.24,11.29l15.98,52.27
	C481.08,742.15,476.02,751.65,467.04,754.4z"/>
<circle class="st11" cx="361.83" cy="586.98" r="5.54"/>
<circle class="st11" cx="517.54" cy="667.94" r="2.22"/>
<circle class="st11" cx="408.75" cy="841.38" r="2.22"/>
<circle class="st11" cx="662.6" cy="594.74" r="2.22"/>
<circle class="st11" cx="740.43" cy="621.57" r="3.33"/>
<circle class="st11" cx="441.95" cy="540.85" r="5.54"/>
<circle class="st11" cx="539.08" cy="581.44" r="5.54"/>
<circle class="st11" cx="704.42" cy="535.31" r="2.22"/>
<circle class="st11" cx="477.78" cy="806.23" r="2.22"/>
<circle class="st11" cx="667.04" cy="790.71" r="2.22"/>
<circle class="st11" cx="688.93" cy="843.59" r="5.54"/>
<circle class="st11" cx="441.95" cy="630.44" r="5.54"/>
<circle class="st11" cx="594.14" cy="649.42" r="3.33"/>
</svg>
